/* XPM */
static char *_643952179720[] = {
/* columns rows colors chars-per-pixel */
"32 32 13 1 ",
"  c black",
". c #010101",
"X c #060606",
"o c #070707",
"O c #3E734E",
"+ c #7AB055",
"@ c #4D9262",
"# c #D89F37",
"$ c #F8D81F",
"% c #F8F800",
"& c #F8D821",
"* c #F8D823",
"= c white",
/* pixels */
"@@@@@@@@@@@@........@@@@@@@@@@@@",
"@@@@@@@@@@@@........@@O@@@@@@@@@",
"@@@@@@@@....========....@@@@@@@@",
"@@@@@@@@....========....@@@@@@@@",
"@@@@@@XX====*$$**$**$$##..@@@@@@",
"@@@@@@Xo====*$**$*$$$$##..@@@@@@",
"@@@@@@..==**%%====%%$$##..@@@@@@",
"@@@@@@..==*$%%====%%$$##..@@@@@@",
"@@@@..==*$%%==%%$*..%%$$##..@@@@",
"@@@@..==*$%%==%%$$..%%$$##..@@@@",
"@@@@..==*$%%==%%$$..%%$$##..@@@@",
"@@@@..==*$%%==%%$$..%%$$##..@@@@",
"@@@@..==$$%%==%%$$..%%$$##..@@@@",
"@@@@..==*$%%==%%$$..%%$$##..@@@@",
"@@@@..==$$%%==%%$$..%%$$##..@@@@",
"+@@@..==*$%%==%%$$..%%$$##..@@@@",
"@+@@..==*$%%==%%$$..%%$$##..@@@+",
"+@@@..==*$%%==%%$$..%%$$##..@@@@",
"@@@@..==$$%%==%%$$..%%$$##..@@@@",
"@@@@..==*$%%==%%$$..%%$$##..@@@@",
"@@@@..==$$%%==*$$$..%%$$##..@@@@",
"@@@@..==*$%%==$$$$..%%$$##..@@@@",
"@@@@..==*$%%==*$$$..%%$$##..@@@@",
"@@@@..==*$%%==$$$$..%%$$##..@@@@",
"@@@@@@..$$%%%%....%%$$##XX@@@@@@",
"@@@@@@..$$%%%%....%%$$##XX@@@@@@",
"@@@@@@..$$$$$$$$$$$$####XX@@@@@@",
"@@@@@@..$$$$$$$$$$$$####XX@@@@@@",
"@@@@@@@@....########....@@@@@@@@",
"@@@@@@@@....########....@@@@@@@@",
"@@@@@@@@@@@@........@@@@@@@@@@@@",
"@@@@@@@@@@@@........@@@@@@@@@@@@"
};
