/* XPM */
static char *_643952213742[] = {
/* columns rows colors chars-per-pixel */
"32 32 9 1 ",
"  c #231E2B",
". c #892727",
"X c #9A2D2D",
"o c #B0392E",
"O c #CF6B55",
"+ c #7AB055",
"@ c #4D9262",
"# c #CF8934",
"$ c #E2B436",
/* pixels */
"@@@@@@@@@@@@@@@@@@@@@@@@@@@@@@@@",
"@@@@@@@@@@@@@@@@@@@@@@@@@@@@@@@@",
"@@@@@@@@@@    @@@@@@@@      @@@@",
"@@@@@@@@@@    @@@@@@@@      @@@@",
"@@@@      OOOO  @@@@  OOOO  @@@@",
"@@@@      OOOO  @@@@  OOOO  @@@@",
"@@@@  OOoooooooo    oooooo  @@@@",
"@@@@  OOoooooooo    oooooo  @@@@",
"@@@@  OOXXooooXXooooXXoo  @@@@@@",
"@@@@  OOXXooooXXooooXXoo  @@@@@@",
"@@@@  OOXXooooXXXXXXXXoo  @@@@@@",
"@@@@  OOXXooooXXXXXXXXoo  @@@@@@",
"@@@@  OOXXooooXXXXXXXXoooo  @@@@",
"@@@@  OOXXooooXXXXXXXXoooo  @@@@",
"@@@@  OOXXXXXXXXXXXXXXXXXX  @@@@",
"+@@@  OOXXXXXXXXXXXXXXXXXX  @@@@",
"@+@@  OO..    ..XXXX..      @@@+",
"+@@@  OO..    ..XXXX..      @@@@",
"@@@@  ##  @@@@  ....  @@@@@@@@@@",
"@@@@  ##  @@@@  ....  @@@@@@@@@@",
"@@@@  $$  @@@@@@    @@@@@@@@@@@@",
"@@@@  $$  @@@@@@    @@@@@@@@@@@@",
"@@@@  $$  @@@@@@@@@@@@@@@@@@@@@@",
"@@@@  $$  @@@@@@@@@@@@@@@@@@@@@@",
"@@@@  $$  @@@@@@@@@@@@@@@+@@@@@@",
"@@@@  $$  @@@@@@@@@@@@@+@+@@@@@@",
"@@@@  $$  @@@@@@@@@@@@@+@+@@@@@@",
"@@@@  $$  @@@@@@@@@@@@@+@@@@@@@@",
"@@@@      @@@@@@@@@@@@@@@@@@@@@@",
"@@@@      @@@+@@@@@@@@@@@@@@@@@@",
"@@@@@@@@@@@@+@+@@@@@@@@@@@@@@@@@",
"@@@@@@@@@@@@@+@@@@@@@@@@@@@@@@@@"
};
