/* XPM */
static char *_643866949115[] = {
/* columns rows colors chars-per-pixel */
"32 32 48 1 ",
"  c #566C44",
". c #757D4B",
"X c #F53902",
"o c #F83800",
"O c #AF7F00",
"+ c #AB790B",
"@ c #B87600",
"# c #B07E00",
"$ c #EE4000",
"% c #E5420B",
"& c #E3430C",
"* c #E8470B",
"= c #F04000",
"- c #F64508",
"; c #F84308",
": c #F84508",
"> c #C06E00",
", c #598F56",
"< c #589057",
"1 c #638D4B",
"2 c #638756",
"3 c #608857",
"4 c #63945E",
"5 c #7AB055",
"6 c #4E9260",
"7 c #4D9262",
"8 c #509160",
"9 c #A3800B",
"0 c #A3810C",
"q c #B88308",
"w c #B98408",
"e c #C0870F",
"r c #C28710",
"t c #FD8A36",
"y c #EC9A36",
"u c #EE9B37",
"i c #FE963E",
"p c #FE973F",
"a c #F59E3E",
"s c #F69F3F",
"d c #EB9340",
"f c #F39F40",
"g c #E9A14A",
"h c #EBA14A",
"j c #EEA549",
"k c #FFA146",
"l c #FEA246",
"z c #FFA347",
/* pixels */
"7777777772ooooooooo&777777777777",
"777777782.ooooooooo%22 223777777",
"77777772oooXooooooooooooo&777777",
"77777772oooXooooooooooooo&777777",
"7777777,OOOOOwzzlaqqlg7777777777",
"7777777,OOOOOwzzza#wlg7777777777",
"77777,Owla#wzzzzza#wllllzg777777",
"77777,Owlaqqafzzzfqeaallzg447777",
"77777,OqlaOOOwzzzzzuqqllzzll7777",
"77777<OqayqqwrzzzzfyOqaaajgg7777",
"77777<OqOwlzzzzzzfOOOOqOq0777777",
"77777<O#OwzzzzzzzaOOOO9qO+777777",
"7777777754zzzzzzzzzzlllg77777777",
"7777777774zzzzzzzzzzllzg77777777",
"7777777,OOO@o$OOOOO+667777777777",
"577777,1OOO@o$OOOO#+<<<<<<777777",
"75777,OOOOO@X$OOO@oXOOOOO+777775",
"5777,1OOOOO@XX@@@@XXOOOO90<<7777",
"7777OOOOOOO@ooooooX$qO##qOOO7777",
"7777OOOOOOq@ooooooX$####OOOO7777",
"7777zzzaO@X-ziooo:zio$#wzzzz7777",
"7777zzzaO@o-liooo:lio$#ezzzz7777",
"7777zzzlliooooooooooo:zfzzll7777",
"7777zzzlitooooooooooo;ifzzll7777",
"7777zzziooooooooooooooo-zzlz7777",
"7777gggdoooooX&&&%ooooo-gggg7777",
"77777772oooXo&7773ooooX*75777777",
"77777772oooXo&7772ooooX&77777777",
"77777,OOOOO97777777<OOOO90767777",
"77777,OOOOO97577777,OOOOq+767777",
"7777OOOOOOq95757777,OOOOOOqO7777",
"7777OOOOOOO97577777,OOOOOO9q7777"
};
